<?xml version="1.0" ?><svg id="Layer_1" style="enable-background:new 0 0 660 489.609772;" version="1.1" viewBox="0 0 660 489.609772" xml:space="preserve" xmlns="http://www.w3.org/2000/svg" xmlns:cc="http://creativecommons.org/ns#" xmlns:dc="http://purl.org/dc/elements/1.1/" xmlns:rdf="http://www.w3.org/1999/02/22-rdf-syntax-ns#" xmlns:xlink="http://www.w3.org/1999/xlink"><style type="text/css">
	.st0{fill:none;}
	.st1{fill:#131E29;}
</style><rect class="st0" height="123" id="backgroundrect" width="522" x="69" y="183.304886"/><g><title/><g id="svg_1"><path class="st1" d="M371.837555,292.027832c0,0.99173,0.313171,1.565887,0.887329,1.565887    c0.469757-0.052216,0.887329-0.260986,1.252686-0.521973l162.692963-105.591232    c2.749023-1.921463,6.042419-2.90947,9.395142-2.818542h35.753845c5.48053,0,9.186401,3.653671,9.186401,9.134186v68.27153    c0,8.246887-1.826843,13.048859-9.134216,17.433258l-43.37439,26.097687c-0.432373,0.300232-0.936646,0.480347-1.461426,0.521973    c-0.521973,0-1.043945-0.417572-1.043945-1.931244V224.53923c0-0.939514-0.260986-1.565857-0.887329-1.565857    c-0.458313,0.052719-0.892456,0.233627-1.252686,0.521942l-118.901031,77.249161    c-2.714172,1.826843-5.898071,2.818542-9.134186,2.766357h-78.815002c-5.532715,0-9.186401-3.653687-9.186401-9.186401v-98.38826    c0-0.730743-0.313171-1.409286-0.939514-1.409286c-0.456909,0.058014-0.889709,0.238342-1.252686,0.521957l-78.449631,47.080231    c-0.782928,0.521957-0.991714,0.887314-0.991714,1.252686c0,0.313171,0.156586,0.626343,0.678543,1.2005l56.057846,56.00563    c0.730713,0.730743,1.252686,1.304871,1.252686,1.931213c0,0.521973-0.835144,0.939514-1.826843,0.939514h-50.629517    c-3.966843,0-7.046371-0.574127-9.186386-2.714142l-33.979172-33.927002c-0.260391-0.311401-0.63855-0.500488-1.043915-0.521942    c-0.368408,0.017029-0.726959,0.124573-1.043915,0.313171l-56.788559,34.135773    c-3.444901,2.087799-5.793686,2.661957-9.186386,2.661957H78.238579C72.653679,303.458618,69,299.752747,69,294.272247v-66.96666    c0-8.299072,1.826836-13.048843,9.186386-17.433258l43.63533-26.202072c0.3423-0.224182,0.73938-0.35054,1.1483-0.365372    c0.678535,0,1.0439,0.678543,1.0439,2.192215v89.671631c0,0.939514,0.208786,1.357086,0.887329,1.357086    c0.469757-0.052185,0.887314-0.260986,1.304886-0.521973l147.399734-88.679916    c2.818542-1.931229,6.263458-2.870743,9.708344-2.714157h79.336975c5.480499,0,9.186371,3.653671,9.186371,9.134186    l-0.052185,98.283875H371.837555z" id="svg_2"/></g></g></svg>